<svg width="26" height="39" viewBox="0 0 26 39" fill="none" xmlns="http://www.w3.org/2000/svg">
<path d="M2.42382 38.497H22.9876C24.047 38.497 24.9084 37.0701 24.9084 35.3153V3.68474C24.9084 1.92994 24.047 0.502956 22.9876 0.502956H17.6717C17.0226 0.502956 16.4225 1.03903 16.0654 1.93881L14.4583 5.99788C14.2694 6.47406 13.9511 6.75995 13.6076 6.75995H2.42377C1.36442 6.75854 0.502956 8.18534 0.502956 9.94029V35.3137C0.502956 37.0683 1.36439 38.4969 2.42377 38.4969L2.42382 38.497ZM1.40691 9.94057C1.40691 9.01224 1.8634 8.25609 2.42382 8.25609H13.6079C14.257 8.25609 14.858 7.71862 15.2142 6.81868L16.8213 2.7596C17.0102 2.28342 17.3285 1.99894 17.6719 1.99894H22.9879C23.5483 1.99894 24.0048 2.75509 24.0048 3.68342V35.3139C24.0048 36.2423 23.5483 36.9984 22.9879 36.9984H2.42387C1.86345 36.9984 1.40696 36.2423 1.40696 35.3139L1.40691 9.94057Z" fill="#008BE6" stroke="#008BE7"/>
</svg>
