<svg width="174" height="70" viewBox="0 0 174 70" fill="none" xmlns="http://www.w3.org/2000/svg">
<g filter="url(#filter0_d_60_216)">
<path d="M20 23C20 20.2386 22.2386 18 25 18H149C151.761 18 154 20.2386 154 23V43C154 45.7614 151.761 48 149 48H25C22.2386 48 20 45.7614 20 43V23Z" fill="white"/>
<path d="M21 23C21 20.7909 22.7909 19 25 19H149C151.209 19 153 20.7909 153 23V43C153 45.2091 151.209 47 149 47H25C22.7909 47 21 45.2091 21 43V23Z" stroke="black" stroke-width="2"/>
</g>
<defs>
<filter id="filter0_d_60_216" x="0" y="0" width="174" height="70" filterUnits="userSpaceOnUse" color-interpolation-filters="sRGB">
<feFlood flood-opacity="0" result="BackgroundImageFix"/>
<feColorMatrix in="SourceAlpha" type="matrix" values="0 0 0 0 0 0 0 0 0 0 0 0 0 0 0 0 0 0 127 0" result="hardAlpha"/>
<feOffset dy="2"/>
<feGaussianBlur stdDeviation="10"/>
<feComposite in2="hardAlpha" operator="out"/>
<feColorMatrix type="matrix" values="0 0 0 0 0 0 0 0 0 0.544915 0 0 0 0 0.904948 0 0 0 0.1 0"/>
<feBlend mode="normal" in2="BackgroundImageFix" result="effect1_dropShadow_60_216"/>
<feBlend mode="normal" in="SourceGraphic" in2="effect1_dropShadow_60_216" result="shape"/>
</filter>
</defs>
</svg>
