<svg width="41" height="34" viewBox="0 0 41 34" fill="none" xmlns="http://www.w3.org/2000/svg">
<path d="M6.22577 0.34449L0.266541 7.30966C0.259984 7.31675 0.253638 7.33071 0.247079 7.3378C0.201598 7.40094 0.156115 7.46432 0.123541 7.53456C0.116983 7.54852 0.104078 7.56979 0.0975207 7.58375C0.0649432 7.66108 0.0391357 7.7455 0.0194612 7.83679C0.0194612 7.85075 0.0194618 7.87202 0.0129042 7.88598C0.00634651 7.92808 0 7.97727 0 8.02645L0.000211543 32.5557C0.000211543 33.1391 0.43557 33.6099 0.975004 33.6099H40.0252C40.5646 33.6099 41 33.1391 41 32.5557V8.01943C41 7.97024 40.9934 7.92814 40.9871 7.87895C40.9871 7.865 40.9871 7.84372 40.9805 7.82976C40.9676 7.73848 40.9416 7.65405 40.9025 7.57672C40.8959 7.56276 40.883 7.54149 40.8764 7.52753C40.8439 7.45729 40.7984 7.39392 40.7529 7.33077C40.7463 7.32368 40.74 7.30972 40.7334 7.30263L34.7742 0.337461C34.5923 0.119651 34.3323 0 34.0594 0L23.4992 0.00022879H6.94069C6.66758 0.00022879 6.40781 0.126749 6.22568 0.344554L6.22577 0.34449ZM39.0568 31.5015H1.96268V9.07379H15.2329V16.4958C15.2329 16.8612 15.4082 17.2057 15.7008 17.3954C15.9931 17.5851 16.3506 17.5992 16.6561 17.4306L20.5098 15.259L24.3635 17.4238C24.5065 17.5011 24.6624 17.5432 24.812 17.5432C24.9873 17.5432 25.1629 17.494 25.3188 17.3885C25.6112 17.1989 25.7868 16.8543 25.7868 16.489V9.07397H39.0569L39.0568 31.5015ZM17.1824 9.07379H23.837V14.7597L20.9581 13.143C20.8151 13.0657 20.6592 13.0236 20.5097 13.0236C20.3601 13.0236 20.1976 13.0657 20.0612 13.143L17.1823 14.7597L17.1824 9.07379ZM37.8025 6.96527H25.6111L24.6947 2.10851H33.6563L37.8025 6.96527ZM22.7063 2.10874L23.6227 6.9655H17.4035L18.3199 2.10874H22.7063ZM16.3246 2.10874L15.4082 6.9655L3.21681 6.96527L7.36942 2.10851L16.3246 2.10874Z" fill="#008BE6"/>
</svg>
