<svg width="45" height="17" viewBox="0 0 45 17" fill="none" xmlns="http://www.w3.org/2000/svg">
<path d="M40.0927 0.216254L29.589 3.68909C29.5774 3.55709 29.5815 3.42426 29.5558 3.29076C29.1651 1.25614 27.18 -0.15109 24.9369 0.0130057L11.8119 0.992391C10.1054 1.11844 8.48831 1.77134 7.2334 2.83248L0.802318 3.87382C0.274577 3.95927 -0.0780561 4.42176 0.0149954 4.90637C0.10805 5.391 0.611688 5.71483 1.13941 5.62938L7.86107 4.54099C8.05802 4.5091 8.23873 4.42365 8.37903 4.29232C9.33765 3.41304 10.6148 2.86777 11.9695 2.76779L25.0945 1.7884C26.3345 1.69623 27.4301 2.47463 27.6458 3.59819C27.7611 4.19855 27.6061 4.79743 27.2135 5.28824C26.8202 5.77542 26.268 6.08203 25.5817 6.16247L18.7275 6.94103C18.1302 6.97249 17.8172 7.44686 17.8856 7.93526C17.9496 8.42266 18.4344 8.77144 18.9682 8.70836L25.8204 7.93014C27.0028 7.79488 28.0607 7.23798 28.7753 6.34938C28.9361 6.14949 29.0684 5.9363 29.1843 5.71843L40.7519 1.89232C41.2538 1.72411 41.8087 1.78097 42.2625 2.04953C42.7178 2.31615 43.0061 2.75082 43.0531 3.24103C43.1117 3.84342 42.7992 4.41351 42.237 4.72891L27.8294 12.8779C26.9342 13.3794 25.9152 13.6259 24.8739 13.5827L9.49158 12.9817C9.40596 12.9775 9.31345 12.9779 9.23555 13.0032L2.76762 14.3563C2.2427 14.4671 1.91668 14.9453 2.03609 15.4238C2.15368 15.9025 2.69213 16.2226 3.19607 16.0957L9.53891 14.77L24.7897 15.3652C26.2181 15.4235 27.6199 15.086 28.8457 14.3971L43.2533 6.24809C44.4429 5.57579 45.1074 4.3659 44.9859 3.08585C44.8852 2.03773 44.2719 1.11265 43.3075 0.544757C42.3392 -0.0227057 41.1696 -0.139175 40.0926 0.216244L40.0927 0.216254Z" fill="#008BE6"/>
</svg>
