<svg width="30" height="21" viewBox="0 0 30 21" fill="none" xmlns="http://www.w3.org/2000/svg">
<path d="M4.49254 0.215242L0.192337 4.56718C0.187605 4.57161 0.183026 4.58033 0.178294 4.58476C0.145474 4.62421 0.112653 4.66381 0.0891474 4.7077C0.0844154 4.71642 0.0751034 4.72971 0.0703714 4.73843C0.0468632 4.78675 0.0282405 4.8395 0.0140433 4.89654C0.0140433 4.90526 0.0140437 4.91855 0.00931169 4.92727C0.00457967 4.95357 0 4.98431 0 5.01504L0.000152651 20.3412C0.000152651 20.7057 0.314309 20.9999 0.703567 20.9999H28.8823C29.2716 20.9999 29.5858 20.7057 29.5858 20.3412V5.01065C29.5858 4.97991 29.581 4.95361 29.5764 4.92288C29.5764 4.91416 29.5764 4.90086 29.5717 4.89214C29.5624 4.83511 29.5436 4.78236 29.5154 4.73404C29.5106 4.72532 29.5013 4.71203 29.4966 4.70331C29.4731 4.65942 29.4403 4.61983 29.4075 4.58037C29.4027 4.57594 29.3981 4.56722 29.3934 4.56279L25.0932 0.210851C24.9619 0.0747593 24.7743 0 24.5774 0L16.9571 0.000142951H5.00843C4.81136 0.000142951 4.6239 0.0791945 4.49248 0.215282L4.49254 0.215242ZM28.1835 19.6826H1.41628V5.66943H10.9921V10.3068C10.9921 10.5351 11.1186 10.7504 11.3298 10.8689C11.5407 10.9874 11.7987 10.9962 12.0191 10.8909L14.8 9.53401L17.5808 10.8866C17.684 10.9349 17.7965 10.9612 17.9044 10.9612C18.031 10.9612 18.1577 10.9305 18.2702 10.8646C18.4811 10.7461 18.6078 10.5308 18.6078 10.3025V5.66954H28.1836L28.1835 19.6826ZM12.3989 5.66943H17.2009V9.22205L15.1235 8.21194C15.0203 8.16362 14.9078 8.13732 14.7999 8.13732C14.6919 8.13732 14.5747 8.16362 14.4762 8.21194L12.3988 9.22205L12.3989 5.66943ZM27.2785 4.35199H18.4811L17.8198 1.31743H24.2865L27.2785 4.35199ZM16.3849 1.31757L17.0462 4.35214H12.5584L13.2197 1.31757H16.3849ZM11.7799 1.31757L11.1186 4.35214L2.32126 4.352L5.3178 1.31743L11.7799 1.31757Z" fill="#008BE6"/>
</svg>
