<svg width="46" height="32" viewBox="0 0 46 32" fill="none" xmlns="http://www.w3.org/2000/svg">
<path d="M6.98112 0.327988L0.29888 6.95953C0.291527 6.96628 0.284411 6.97957 0.277057 6.98632C0.226057 7.04644 0.175056 7.10678 0.138529 7.17365C0.131176 7.18694 0.116706 7.2072 0.109353 7.22049C0.0728225 7.29411 0.0438839 7.37449 0.0218223 7.46141C0.0218223 7.4747 0.021823 7.49495 0.0144698 7.50824C0.00711651 7.54832 0 7.59516 0 7.64199L0.000237209 30.9962C0.000237209 31.5517 0.488416 32 1.0933 32H44.8813C45.4862 32 45.9743 31.5517 45.9743 30.9962V7.63529C45.9743 7.58846 45.967 7.54838 45.9599 7.50155C45.9599 7.48826 45.9599 7.468 45.9525 7.45472C45.9381 7.3678 45.9089 7.28742 45.865 7.2138C45.8576 7.20051 45.8432 7.18025 45.8358 7.16696C45.7993 7.10009 45.7483 7.03975 45.6973 6.97963C45.6899 6.97288 45.6828 6.95959 45.6755 6.95283L38.9932 0.321297C38.7892 0.113919 38.4977 0 38.1917 0L26.3502 0.000217831H7.78278C7.47654 0.000217831 7.18525 0.120678 6.98102 0.32805L6.98112 0.327988ZM43.7954 29.9926H2.2008V8.63916H17.081V15.7057C17.081 16.0535 17.2776 16.3816 17.6057 16.5621C17.9335 16.7427 18.3344 16.7562 18.677 16.5957L22.9982 14.528L27.3194 16.5892C27.4798 16.6628 27.6546 16.7029 27.8223 16.7029C28.019 16.7029 28.2158 16.656 28.3907 16.5556C28.7185 16.375 28.9154 16.047 28.9154 15.6991V8.63933H43.7956L43.7954 29.9926ZM19.2671 8.63916H26.7291V14.0527L23.5009 12.5135C23.3406 12.4398 23.1657 12.3998 22.998 12.3998C22.8303 12.3998 22.6481 12.4398 22.4951 12.5135L19.267 14.0527L19.2671 8.63916ZM42.389 6.63163H28.7184L27.6908 2.00751H37.7397L42.389 6.63163ZM25.4611 2.00773L26.4887 6.63185H19.515L20.5426 2.00773H25.4611ZM18.3052 2.00773L17.2776 6.63185L3.60709 6.63163L8.26352 2.00751L18.3052 2.00773Z" fill="#008BE6"/>
</svg>
