<svg width="31" height="27" viewBox="0 0 31 27" fill="none" xmlns="http://www.w3.org/2000/svg">
<path d="M29.3029 0H1.69812C0.761262 0 0 0.715716 0 1.59652V19.989C0 20.8688 0.761262 21.5855 1.69812 21.5855H10.5024L9.3657 25.909L5.54913 25.9091C5.23217 25.9091 4.97504 26.1508 4.97504 26.4488C4.97504 26.7468 5.23218 26.9886 5.54913 26.9886H25.4495C25.7664 26.9886 26.0236 26.7468 26.0236 26.4488C26.0236 26.1508 25.7664 25.9091 25.4495 25.9091H21.6341L20.4974 21.5857H29.3017C30.2375 21.5857 30.9998 20.8699 30.9998 19.9891L31 1.59664C31.0012 0.715829 30.2399 0.000112447 29.303 0.000112447L29.3029 0ZM10.5483 25.9078L11.6862 21.5843H19.3172L20.4551 25.9078H10.5483ZM29.8528 19.989C29.8528 20.2739 29.606 20.506 29.3029 20.506H11.2351L1.69809 20.5061C1.39502 20.5061 1.14815 20.274 1.14815 19.9891V1.59661C1.14815 1.31167 1.39501 1.07957 1.69809 1.07957H29.3038C29.6069 1.07957 29.8538 1.31166 29.8538 1.59661L29.8539 19.9891L29.8528 19.989Z" fill="#052A42"/>
</svg>
