<svg width="36" height="27" viewBox="0 0 36 27" fill="none" xmlns="http://www.w3.org/2000/svg">
<path d="M35.3332 8.75054e-05L8.66663 8.75054e-05C8.48927 8.75054e-05 8.31996 0.0672702 8.1947 0.185132L0.194723 7.78735C0.0706949 7.9064 0 8.06729 0 8.23582L0 25.9743C0 26.3241 0.298609 26.6079 0.666665 26.6079L35.3332 26.6079C35.7013 26.6079 35.9999 26.3241 35.9999 25.9743V0.633593C35.9999 0.283823 35.7013 8.75054e-05 35.3332 8.75054e-05ZM2.27589 7.60231L7.99996 2.16283L7.99996 7.60231H2.27589ZM34.6666 1.26712V25.3408H1.33332L1.33332 8.86935H8.66663C9.0347 8.86935 9.33329 8.58558 9.33329 8.23583V1.26712L34.6666 1.26712Z" fill="#042942"/>
</svg>
