<svg width="35" height="35" viewBox="0 0 35 35" fill="none" xmlns="http://www.w3.org/2000/svg">
<path d="M17.5001 0C7.84995 0 0 5.34083 0 11.9072C0 17.874 8.34161 27.5895 13.3147 32.8485C14.2385 33.8225 15.8021 34.406 17.5 34.406C19.1979 34.406 20.7635 33.8237 21.6853 32.8485C26.6582 27.5885 35 17.874 35 11.9072C35 5.34083 27.1506 0 17.5 0H17.5001ZM20.0498 32.1321C18.9101 33.3389 16.0921 33.3389 14.9523 32.1321C10.094 26.9939 1.94511 17.5349 1.94511 11.9069C1.94511 6.07094 8.92325 1.32294 17.5003 1.32294C26.0774 1.32294 33.0555 6.07094 33.0555 11.9069C33.0555 17.5346 24.9084 26.9949 20.0504 32.1321H20.0498Z" fill="#008BE6"/>
</svg>
