<svg width="37" height="37" viewBox="0 0 37 37" fill="none" xmlns="http://www.w3.org/2000/svg">
<path d="M32.9128 10.4711C33.8091 9.66938 33.8091 8.3661 32.9128 7.56446C32.0181 6.76423 30.5578 6.76423 29.663 7.56446L29.4807 7.72747C26.8914 5.92688 23.8407 4.79345 20.5848 4.42901V4.11111H20.6844C21.9514 4.11111 22.9826 3.18883 22.9826 2.05556C22.9826 0.922278 21.9514 0 20.6844 0H15.8873C14.6202 0 13.589 0.922278 13.589 2.05556C13.589 3.18883 14.6202 4.11111 15.8873 4.11111H15.9884V4.42773C12.7326 4.7936 9.68369 5.92556 7.09249 7.72619L6.91023 7.56446C6.01553 6.76423 4.55531 6.76423 3.66045 7.56446C2.76411 8.36614 2.76411 9.66942 3.66045 10.4711L3.84271 10.6355C1.3606 13.4969 0 17.0269 0 20.6462C0.00015959 29.6632 8.20341 37 18.2867 37C28.37 37 36.573 29.6632 36.573 20.6447C36.573 17.0255 35.2124 13.4954 32.7303 10.634L32.9128 10.4711ZM35.0409 20.6447C35.0409 28.9079 27.5239 35.6296 18.2868 35.6296C9.04965 35.6296 1.53265 28.9079 1.53265 20.6447C1.53265 17.138 2.92692 13.7216 5.4596 11.0247C5.71544 10.7533 5.69549 10.3518 5.41524 10.0997L4.74411 9.50216C4.44534 9.23494 4.44534 8.80057 4.74411 8.53333C4.89413 8.399 5.09028 8.33191 5.28641 8.33191C5.48254 8.33191 5.67871 8.399 5.82872 8.53204L6.49985 9.1323C6.77867 9.38568 7.23226 9.39938 7.53101 9.17199C10.1724 7.18637 13.3839 5.99543 16.8204 5.72552C17.2172 5.6954 17.5206 5.39792 17.5206 5.04447V3.426C17.5206 3.04771 17.1775 2.74082 16.7545 2.74082H15.8888C15.4675 2.74082 15.1227 2.43248 15.1227 2.05563C15.1227 1.67878 15.4675 1.37045 15.8888 1.37045H20.6859C21.1073 1.37045 21.452 1.67878 21.452 2.05563C21.452 2.43248 21.1073 2.74082 20.6859 2.74082H19.8186C19.3957 2.74082 19.0526 3.04772 19.0526 3.426V5.04447C19.0526 5.39933 19.356 5.69684 19.7513 5.72695C23.188 5.9956 26.4009 7.18641 29.0407 9.17341C29.3411 9.39952 29.7945 9.38439 30.0749 9.13373L30.746 8.53347C31.0448 8.26625 31.5305 8.26625 31.8293 8.53347C32.1281 8.80069 32.128 9.23506 31.8293 9.5023L31.1581 10.1026C30.8763 10.3547 30.8578 10.7562 31.1138 11.0275C33.6447 13.7229 35.0406 17.1394 35.0406 20.6446L35.0409 20.6447Z" fill="#008BE6"/>
</svg>
