<svg width="63" height="52" viewBox="0 0 63 52" fill="none" xmlns="http://www.w3.org/2000/svg">
<path d="M59.4247 5.77778H54.764V3.85185C54.764 1.72756 52.6736 0 50.1032 0C47.5328 0 45.4424 1.72756 45.4424 3.85185V5.77778H17.4779V3.85185C17.4779 1.72756 15.3875 0 12.8171 0C10.2467 0 8.15633 1.72756 8.15633 3.85185V5.77778H3.49557C1.56835 5.77778 0 7.07393 0 8.66667V49.1111C0 50.7039 1.56835 52 3.49557 52H59.4247C61.3519 52 62.9203 50.7039 62.9203 49.1111V8.66667C62.9203 7.07393 61.3519 5.77778 59.4247 5.77778ZM47.7728 3.85185C47.7728 2.79067 48.8192 1.92593 50.1032 1.92593C51.3872 1.92593 52.4336 2.79067 52.4336 3.85185V9.62963C52.4336 10.6908 51.3872 11.5556 50.1032 11.5556C48.8192 11.5556 47.7728 10.6908 47.7728 9.62963V3.85185ZM10.4867 3.85185C10.4867 2.79067 11.5331 1.92593 12.8171 1.92593C14.1011 1.92593 15.1475 2.79067 15.1475 3.85185V9.62963C15.1475 10.6908 14.1011 11.5556 12.8171 11.5556C11.5331 11.5556 10.4867 10.6908 10.4867 9.62963V3.85185ZM60.5899 49.1111C60.5899 49.6427 60.0679 50.0741 59.4247 50.0741H3.49557C2.85239 50.0741 2.33038 49.6427 2.33038 49.1111V8.66667C2.33038 8.13511 2.85239 7.7037 3.49557 7.7037H8.15633V9.62963C8.15633 11.7539 10.2467 13.4815 12.8171 13.4815C15.3875 13.4815 17.4779 11.7539 17.4779 9.62963V7.7037H45.4424V9.62963C45.4424 11.7539 47.5328 13.4815 50.1032 13.4815C52.6736 13.4815 54.764 11.7539 54.764 9.62963V7.7037H59.4247C60.0679 7.7037 60.5899 8.13511 60.5899 8.66667V49.1111Z" fill="#008BE7"/>
</svg>
