<svg width="55" height="51" viewBox="0 0 55 51" fill="none" xmlns="http://www.w3.org/2000/svg">
<path d="M0 44.7431C0 45.2514 0.466043 45.6617 1.04338 45.6617H17.494L19.1078 46.715L24.5751 50.2854C25.1385 50.6529 25.7993 50.8305 26.4531 50.8305C27.42 50.8305 28.3799 50.4385 28.999 49.7036C29.2285 49.428 29.3955 49.1218 29.4998 48.7972C29.945 48.9932 30.4249 49.0973 30.9258 49.0973C31.0788 49.0973 31.2388 49.0851 31.3988 49.0667C32.2335 48.9565 32.9708 48.5707 33.4716 47.9705C33.7012 47.6949 33.8611 47.3887 33.9655 47.0702C34.4315 47.2846 34.9323 47.3948 35.4401 47.3948C36.407 47.3948 37.3669 47.0029 37.986 46.268C38.146 46.0781 38.2642 45.8699 38.3616 45.6556H53.9566C54.534 45.6556 55 45.2452 55 44.7369V10.0007C55 9.98237 54.993 9.95787 54.993 9.9395C54.993 9.915 54.9861 9.89663 54.9861 9.87213C54.9722 9.80477 54.9583 9.74353 54.9304 9.68228C54.9235 9.67004 54.9235 9.66391 54.9165 9.65166C54.8818 9.57817 54.84 9.51693 54.7913 9.45569C54.7844 9.44957 54.7844 9.43732 54.7774 9.43119L46.7086 0.355201C46.5069 0.134731 46.2078 0 45.8878 0H31.5518H23.4552H9.11914C8.79917 0 8.49311 0.128607 8.29834 0.355201L0.222587 9.43119C0.215632 9.43732 0.215632 9.44344 0.208676 9.44957C0.159985 9.51081 0.111294 9.57817 0.0765142 9.64554C0.0695584 9.65166 0.0695589 9.66391 0.0695589 9.67004C0.0417354 9.73128 0.0278231 9.79864 0.0139114 9.86601C0.00695552 9.89051 0.00695602 9.90888 0.00695602 9.93337C0.00695602 9.95175 0 9.97624 0 9.99462V44.7431ZM2.08676 43.8244V35.6058L7.75579 39.3048C7.93664 39.4212 8.15227 39.4824 8.37486 39.4824C8.42355 39.4824 8.4792 39.4763 8.52789 39.4702C8.74352 39.8254 9.03566 40.1377 9.41128 40.3827L14.6769 43.8183H2.08676V43.8244ZM17.1323 26.6278C17.1323 26.6339 17.1323 26.6339 17.1323 26.6278L9.45302 35.7528L8.16618 37.2838L4.13874 34.6566L13.3553 23.7005L17.3827 26.3277L17.1323 26.6278ZM34.8002 45.38L32.8178 44.0878C32.8178 44.0878 32.8178 44.0878 32.8108 44.0878L25.3959 39.2497C24.9368 38.9496 24.2829 39.0353 23.9351 39.4395C23.5943 39.8499 23.6917 40.4255 24.1508 40.7256L31.5657 45.5637C31.7952 45.7168 31.9483 45.9373 31.99 46.1822C32.0317 46.4333 31.9622 46.6844 31.7883 46.8865C31.6144 47.0886 31.364 47.2233 31.0788 47.2601C30.8006 47.2968 30.5084 47.2356 30.2789 47.0825L22.8639 42.2444C22.4048 41.9443 21.751 42.0301 21.4032 42.4343C21.0624 42.8446 21.1597 43.4202 21.6188 43.7203L27.0861 47.2907C27.3157 47.4438 27.4687 47.6643 27.5104 47.9154C27.5522 48.1665 27.4826 48.4175 27.3087 48.6196C26.954 49.0422 26.2793 49.1279 25.8063 48.8156L20.3389 45.2452L10.6564 38.9129C10.4408 38.772 10.2947 38.5577 10.2529 38.3249C10.2112 38.0861 10.2808 37.8534 10.4407 37.6574L18.8087 27.724C18.9686 27.5342 19.2051 27.4056 19.4764 27.3688L28.8181 26.144C28.9225 27.1974 28.0739 28.1589 26.8705 28.312L23.1352 28.8019C22.7178 28.857 22.377 29.1265 22.2796 29.4878C22.1822 29.8491 22.3283 30.2288 22.6692 30.4493L29.2077 34.7178L36.6226 39.5559C36.8522 39.709 37.0052 39.9295 37.0469 40.1744C37.0887 40.4255 37.0191 40.6766 36.8452 40.8787C36.6713 41.0808 36.4209 41.2155 36.1357 41.2523C35.8575 41.289 35.5653 41.2278 35.3358 41.0747L27.9208 36.2366C27.4617 35.9365 26.8079 36.0223 26.4601 36.4265C26.1193 36.8368 26.2166 37.4124 26.6757 37.7125L34.0907 42.5506L36.0801 43.8489C36.3096 44.002 36.4626 44.2225 36.5044 44.4736C36.5113 44.4981 36.5044 44.5226 36.5113 44.5471C36.4974 44.6083 36.4905 44.6696 36.4905 44.7369C36.4905 44.7553 36.4974 44.7737 36.4974 44.7982C36.4696 44.9329 36.407 45.0615 36.3096 45.1779C35.9549 45.6004 35.2801 45.6923 34.8002 45.38ZM52.9202 43.8244H38.4659C38.3198 43.3957 38.0555 42.9977 37.6869 42.6608C38.0068 42.4832 38.292 42.2566 38.5285 41.9749C39.0293 41.3748 39.238 40.646 39.1128 39.905C38.9876 39.164 38.5494 38.5209 37.8677 38.08L30.4528 33.2419L25.9384 30.2962L27.1835 30.1308C28.3382 29.9777 29.3607 29.4388 30.0563 28.612C30.7519 27.7853 31.044 26.7687 30.8701 25.7521C30.7936 25.2989 30.5223 24.9008 30.105 24.6252C29.6876 24.3496 29.1729 24.2333 28.6582 24.3068L19.6016 25.4948C19.5599 25.4581 19.5251 25.4275 19.4764 25.3969L13.7726 21.6734C13.3135 21.3733 12.6597 21.459 12.3119 21.8632L2.10067 33.989V10.9194H20.645V18.7277C20.645 19.0584 20.8467 19.3646 21.1806 19.5299C21.5145 19.6891 21.9179 19.683 22.2379 19.5115L27.5035 16.6454L32.783 19.5054C32.9499 19.5973 33.1377 19.6402 33.3325 19.6402C33.5064 19.6402 33.6803 19.6034 33.8403 19.5238C34.1672 19.3584 34.3759 19.0522 34.3759 18.7215V10.9194H52.9202V43.8244ZM22.7178 10.9194H32.2891V17.0803L28.053 14.7837C27.8861 14.6918 27.6982 14.649 27.5035 14.649C27.3087 14.649 27.1279 14.6918 26.954 14.7837L22.7178 17.0803V10.9194ZM51.8212 9.08212H34.2089L32.7969 1.83725H45.387L51.8212 9.08212ZM30.6754 1.83725L32.0943 9.08212H22.9126L24.3316 1.83725H30.6754ZM9.62691 1.83725H22.217L20.798 9.08212H3.18578L9.62691 1.83725Z" fill="#008BE7"/>
</svg>
