<svg width="57" height="34" viewBox="0 0 57 34" fill="none" xmlns="http://www.w3.org/2000/svg">
<path d="M53.466 15.3022L43.5362 12.7205L40.7137 3.24852C40.1359 1.3058 38.4023 2.31853e-06 36.4053 2.31853e-06H2.82641C1.26776 -0.00199431 0 1.28583 0 2.86916V27.284C0 27.8351 0.440276 28.2823 0.982759 28.2823H3.34531C3.819 31.2493 6.33879 33.5255 9.39124 33.5255C12.4437 33.5255 14.9615 31.2473 15.4352 28.2823H41.3427C41.8164 31.2493 44.3362 33.5255 47.3886 33.5255C50.4391 33.5255 52.9589 31.2473 53.4326 28.2823H56.0173C56.5597 28.2823 57 27.8351 57 27.284V19.9284C57 17.7441 55.5475 15.8433 53.466 15.3022ZM9.38928 31.5288C7.08569 31.5288 5.21059 29.624 5.21059 27.286C5.21059 24.9459 7.08569 23.0411 9.38928 23.0411C11.6929 23.0411 13.566 24.9459 13.566 27.286C13.568 29.624 11.6929 31.5288 9.38928 31.5288ZM47.3867 31.5288C45.0831 31.5288 43.208 29.624 43.208 27.286C43.208 24.9459 45.0831 23.0411 47.3867 23.0411C49.6903 23.0411 51.5634 24.9459 51.5634 27.286C51.5634 29.624 49.6903 31.5288 47.3867 31.5288ZM55.0345 26.2857H53.4306C52.955 23.3207 50.4372 21.0445 47.3886 21.0445C44.3382 21.0445 41.8184 23.3207 41.3447 26.2857H15.4332C14.9576 23.3207 12.4398 21.0445 9.38928 21.0445C6.33879 21.0445 3.819 23.3207 3.34531 26.2857H1.96552V2.86916C1.96552 2.38798 2.35076 1.99464 2.82641 1.99464H36.4073C37.5335 1.99464 38.5084 2.7314 38.8347 3.82555L41.4331 12.5488H31.4561C30.8331 12.5488 30.324 12.0337 30.324 11.3988V4.11906C30.324 3.56799 29.8837 3.12074 29.3412 3.12074C28.7988 3.12074 28.3585 3.56799 28.3585 4.11906V11.3968C28.3585 13.1319 29.7481 14.5435 31.4561 14.5435H42.634L52.9786 17.2349C53.9122 17.4765 54.6158 18.1933 54.8949 19.0878H52.9904C52.4479 19.0878 52.0076 19.5351 52.0076 20.0861C52.0076 20.6372 52.4479 21.0844 52.9904 21.0844H55.0345V26.2857Z" fill="#008BE7"/>
</svg>
