<svg width="27" height="24" viewBox="0 0 27 24" fill="none" xmlns="http://www.w3.org/2000/svg">
<path d="M1.15527 14.9706C0.448806 15.5497 0.300462 16.454 0.797004 17.1702L1.59933 18.3299C2.0928 19.0435 3.10309 19.3892 4.04872 19.167L6.00464 18.7131C6.34579 18.6348 6.72518 18.702 7.04719 18.9005C7.65671 19.2751 8.31578 19.5936 9.0071 19.8466C9.37241 19.9802 9.63177 20.2187 9.71862 20.5006L10.2252 22.1389C10.4725 22.9376 11.3334 23.4954 12.3194 23.4954H13.924C14.9101 23.4954 15.7709 22.9376 16.0182 22.1389L16.5248 20.5006C16.6116 20.2187 16.871 19.9802 17.2363 19.8466C17.9277 19.5937 18.5867 19.2751 19.1962 18.9005C19.5181 18.7029 19.8987 18.6339 20.2397 18.7131L22.1956 19.167C23.1443 19.3875 24.1516 19.0435 24.645 18.3299L25.4474 17.1702C25.9429 16.454 25.7956 15.5497 25.0891 14.9706L23.6489 13.7912C23.3986 13.586 23.2805 13.2803 23.324 12.9524C23.3663 12.6399 23.3885 12.3223 23.3885 12.0004C23.3885 11.6785 23.3663 11.3609 23.3249 11.0484C23.2806 10.7205 23.3986 10.4149 23.6489 10.2105L25.0901 9.03021C25.7966 8.45116 25.9449 7.54685 25.4484 6.83067L24.6461 5.6709C24.1535 4.95728 23.1443 4.61331 22.1967 4.83382L20.2408 5.2877C19.9007 5.36691 19.5212 5.29879 19.1982 5.10036C18.5887 4.72569 17.9296 4.40726 17.2383 4.15427C16.873 4.0206 16.6136 3.78216 16.5268 3.50026L16.0172 1.86113C15.77 1.06236 14.9091 0.504616 13.9231 0.504616H12.3184C11.3324 0.504616 10.4715 1.06236 10.2243 1.86113L9.71765 3.49945C9.63081 3.78134 9.37147 4.01977 9.00613 4.15345C8.31479 4.40635 7.65575 4.72487 7.04623 5.09955C6.72526 5.29877 6.34482 5.36688 6.00368 5.28768L4.04881 4.8338C3.09803 4.6116 2.09184 4.95728 1.59836 5.67088L0.79698 6.83065C0.301407 7.54683 0.448781 8.45114 1.15524 9.03019L2.59645 10.2105C2.84677 10.4148 2.96484 10.7205 2.92046 11.0483C2.87809 11.3608 2.85581 11.6785 2.85581 12.0004C2.85581 12.3223 2.87799 12.6399 2.91941 12.9524C2.96377 13.2803 2.84571 13.5859 2.5954 13.7903L1.15527 14.9706ZM3.29893 14.4009C3.77526 14.0109 4.00235 13.448 3.92266 12.8562C3.88524 12.5752 3.86505 12.2899 3.86505 12.0004C3.86505 11.7109 3.88524 11.4256 3.92256 11.1446C4.00224 10.5528 3.77517 9.98909 3.29883 9.59997L1.85772 8.4188C1.48536 8.11393 1.40661 7.63707 1.66797 7.25982L2.47029 6.10005C2.73374 5.71942 3.27262 5.53803 3.78124 5.65468L5.73716 6.10856C6.37602 6.25758 7.0704 6.14094 7.64262 5.78834C8.19159 5.45108 8.78704 5.16335 9.40983 4.93512C10.0618 4.69669 10.5301 4.25132 10.6955 3.71485L11.2021 2.07654C11.3324 1.65254 11.7916 1.35618 12.3184 1.35618H13.9231C14.4499 1.35618 14.9101 1.65254 15.0403 2.07574L15.5469 3.71406C15.7124 4.25053 16.1807 4.69589 16.8326 4.93432C17.4563 5.16256 18.0507 5.44952 18.5998 5.78754C19.172 6.14004 19.8675 6.25678 20.5042 6.10777L22.4601 5.65389C22.9687 5.53804 23.5077 5.71864 23.7702 6.09925L24.5725 7.25903C24.8329 7.63627 24.7552 8.11313 24.3827 8.41801L22.9415 9.59829C22.4652 9.98831 22.2381 10.5511 22.3178 11.1429C22.3551 11.4248 22.3753 11.7101 22.3753 11.9987C22.3753 12.2874 22.3551 12.5735 22.3178 12.8546C22.2381 13.4464 22.4652 14.0093 22.9415 14.3992L24.3827 15.5795C24.7551 15.8844 24.8338 16.3612 24.5725 16.7385L23.7702 17.8982C23.5058 18.2789 22.9667 18.4594 22.4592 18.3436L20.5033 17.8897C19.8655 17.7407 19.17 17.8582 18.5978 18.2099C18.0489 18.5472 17.4534 18.8349 16.8306 19.0632C16.1786 19.3016 15.7104 19.747 15.5449 20.2834L15.0383 21.9217C14.9082 22.3458 14.4479 22.6413 13.9211 22.6413H12.3164C11.7896 22.6413 11.3294 22.3449 11.1992 21.9217L10.6926 20.2834C10.5271 19.747 10.0588 19.3016 9.40689 19.0632C8.78316 18.8349 8.18876 18.548 7.63969 18.2099C7.23094 17.9578 6.75861 17.8267 6.28931 17.8267C6.1026 17.8267 5.91589 17.8471 5.73528 17.8897L3.77936 18.3436C3.27076 18.4595 2.7328 18.2789 2.46935 17.8982L1.66702 16.7385C1.40662 16.3612 1.48431 15.8844 1.85678 15.5795L3.29893 14.4009Z" fill="white" stroke="white"/>
</svg>
