<svg width="18" height="23" viewBox="0 0 18 23" fill="none" xmlns="http://www.w3.org/2000/svg">
<path d="M0.57811 19.7824L9.77876 22.9468C9.88344 22.9822 9.99347 23 10.1026 23C10.282 23 10.4606 22.9517 10.6131 22.8582C10.8576 22.7076 11.0046 22.4596 11.0046 22.1946V19.8356H17.0626C17.5605 19.8356 17.9646 19.4756 17.9646 19.0303V12.9923C17.9646 12.5469 17.5605 12.1869 17.0626 12.1869C16.5647 12.1869 16.1606 12.5469 16.1606 12.9923V18.2249H11.0046V3.9688C11.0046 3.63542 10.7755 3.33743 10.4263 3.21662L4.8707 1.19106H16.4166V6.8425C16.4166 7.28789 16.5647 7.64788 17.0626 7.64788C17.5605 7.64788 17.7142 7.28789 17.7142 6.8425V0.761525C17.7142 0.31614 17.5606 0 17.0627 0H0.902019C0.889428 0 0.879469 0.00562093 0.866879 0.00645981C0.763993 0.00964783 0.662983 0.0257553 0.567334 0.060403C0.549294 0.0660239 0.534917 0.0756718 0.518663 0.0828871C0.475347 0.100589 0.432031 0.117536 0.39238 0.141697C0.356299 0.16267 0.328298 0.19002 0.297667 0.215021C0.282352 0.227857 0.267037 0.237589 0.252566 0.251263C0.183129 0.315693 0.128067 0.389771 0.0866319 0.470305C0.0776116 0.488845 0.0712225 0.506547 0.0631418 0.525088C0.0261202 0.614435 0 0.707892 0 0.805381V19.031C0 19.3644 0.228952 19.6625 0.57811 19.7824ZM9.77876 21.594L1.50314 18.802V1.19106L9.77876 4.41258V21.594Z" fill="white"/>
</svg>
