<svg width="26" height="18" viewBox="0 0 26 18" fill="none" xmlns="http://www.w3.org/2000/svg">
<path fill-rule="evenodd" clip-rule="evenodd" d="M1.91434 1.38311e-06L12.3226 0C13.4796 3.00606e-06 12.422 1.01534e-06 13.6776 1.38311e-06H24.0854C24.5954 1.38311e-06 25.1113 0.204166 25.4366 0.522822L25.4381 0.521512C25.7847 0.843382 26 1.28796 26 1.77725V15.838C26 16.8277 25.1549 17.6155 24.0248 17.6155H1.91424C0.860025 17.6155 0 16.8172 0 15.838V1.77747C0 0.801532 0.863309 1.38311e-06 1.91434 1.38311e-06ZM16.683 1.26642C16.3941 1.25882 13.3607 1.25882 13.0004 1.25882H9.60585C8.73832 1.25882 9.74946 1.25882 10.7614 1.25882H12.5198H14.661H12.3225H2.43063L12.6234 9.09789C12.8387 9.26337 13.1616 9.26337 13.3769 9.09789L23.5695 1.25882H13.6776H14.661H16.2213C17.2608 1.25882 19.847 1.25882 18.0553 1.25882L16.8997 1.27305L16.683 1.26642ZM11.1848 9.6239L2.43072 16.3569H23.5696L14.8148 9.6239C14.2286 10.0746 13.8233 10.4805 13 10.4805C12.1764 10.4805 11.7713 10.0748 11.1848 9.6239ZM15.8763 8.80785L24.6443 15.5511V2.06419L15.8763 8.80785ZM1.35578 15.5511L10.1238 8.80785L1.35578 2.06419V15.5511Z" fill="white"/>
</svg>
