<svg width="27" height="19" viewBox="0 0 27 19" fill="none" xmlns="http://www.w3.org/2000/svg">
<path d="M16.8622 18.9493H23.8747C24.3724 18.9493 24.7747 18.6332 24.7747 18.2422V7.70613L25.5882 8.14949C25.7448 8.23434 25.923 8.27537 26.0994 8.27537C26.3847 8.27537 26.6655 8.1693 26.8401 7.97057C27.1227 7.64958 27.0211 7.20968 26.6124 6.98629L14.0129 0.125182C13.7042 -0.0417274 13.2956 -0.0417274 12.9869 0.125182L0.38739 6.98629C-0.0211473 7.20902 -0.122879 7.64958 0.160617 7.97057C0.444114 8.29157 1.00303 8.37084 1.41335 8.14949L2.22876 7.70687V18.2429C2.22876 18.634 2.63197 18.95 3.12873 18.95H10.1413C10.638 18.95 11.0412 18.634 11.0412 18.2429V12.4891C11.0412 11.4227 12.1455 10.5559 13.5016 10.5559C14.8579 10.5559 15.962 11.4235 15.962 12.4891V18.2429C15.9621 18.6332 16.3653 18.9493 16.8621 18.9493L16.8622 18.9493ZM13.5019 9.14092C11.1529 9.14092 9.24153 10.6428 9.24153 12.4883V17.5351H4.02893V6.72617L13.5021 1.56704L22.9753 6.72617V17.5352H17.7627V12.4885C17.7626 10.6429 15.8511 9.14092 13.5021 9.14092H13.5019Z" fill="#008BE7"/>
</svg>
