<svg width="15" height="8" viewBox="0 0 15 8" fill="none" xmlns="http://www.w3.org/2000/svg">
<path d="M9.40962 7.78627C9.58469 7.94259 9.57679 7.91453 9.81621 8.00004C10.0556 8.00004 10.3594 7.94258 10.5345 7.78627L12.4498 6.07613L14.4016 4.64089C14.5704 4.49026 14.6647 4.28668 14.6647 4.07341C14.6647 3.86013 14.5704 3.66081 14.4016 3.51092L12.4498 2.01455L10.5345 0.304407C10.1834 -0.0090613 9.7606 -0.13046 9.40962 0.183009C9.05853 0.496477 9.05853 1.00308 9.40962 1.31647L11.7316 3.51092H0.957679C0.462104 3.51092 0 3.70891 0 4.15222C0 4.59553 0.462104 4.79352 0.957679 4.79352H11.7316L9.40962 6.82926C9.05863 7.14356 9.05863 7.47287 9.40962 7.78627Z" fill="white"/>
</svg>
