<svg width="21" height="10" viewBox="0 0 21 10" fill="none" xmlns="http://www.w3.org/2000/svg">
<path d="M1.07737 9.44622C1.3653 9.44622 1.60092 9.26497 1.60092 9.04349V5.34234C1.60092 3.14542 3.9229 1.35929 6.7789 1.35929H14.093C16.949 1.35929 19.271 3.14542 19.271 5.34234V9.04349C19.271 9.26497 19.5066 9.44622 19.7945 9.44622C20.0825 9.44622 20.3181 9.26497 20.3181 9.04349V5.34234C20.3181 2.70241 17.5249 0.553815 14.093 0.553815L6.7789 0.55375C3.34699 0.55375 0.553811 2.70234 0.553811 5.34228V9.04342C0.553811 9.26491 0.786794 9.44616 1.07737 9.44616V9.44622Z" fill="white" stroke="white" stroke-width="1.1"/>
</svg>
