<svg width="87" height="51" viewBox="0 0 87 51" fill="none" xmlns="http://www.w3.org/2000/svg">
<path d="M1.17153 16.1496C-0.390509 16.1496 -0.390509 18.5164 1.17153 18.5164H8.36655V40.6695C8.36655 41.3243 8.89513 41.8528 9.5499 41.8528H20.1211C20.3499 46.6968 24.3419 50.5701 29.2415 50.5701C34.1412 50.5701 38.1406 46.6965 38.362 41.8528H63.8601C64.0889 46.6968 68.0888 50.5701 72.9805 50.5701C77.8723 50.5701 81.8721 46.6965 82.101 41.8604H85.8168C86.4716 41.8604 87.0001 41.3318 87.0001 40.677V30.0898C87.0001 26.445 85.225 23.021 82.2429 20.9223L80.2785 19.5417L77.9669 12.9936C76.5626 9.00951 72.7757 6.32716 68.5469 6.32716H60.4683V1.18335C60.4683 0.528542 59.9397 0 59.2849 0H9.55848C8.90368 0 8.37513 0.528576 8.37513 1.18335V7.29752H1.1722C-0.389836 7.29752 -0.389836 9.6643 1.1722 9.6643H8.36722V16.1492L1.17153 16.1496ZM72.9879 48.204C68.4832 48.204 65.2012 43.8333 66.4951 39.4943C68.7041 32.1099 79.7566 33.601 79.7566 41.435C79.7566 45.1114 76.7587 48.2119 72.9798 48.2119L72.9879 48.204ZM84.6405 39.4943H81.9187C81.6189 38.1137 81.0035 36.8514 80.1594 35.7784H84.6484V39.4943H84.6405ZM66.0142 8.7021H68.5625C71.7892 8.7021 74.6766 10.7454 75.7496 13.7907C77.7692 19.5025 77.6035 18.7452 77.2407 18.7452H66.0139L66.0142 8.7021ZM60.476 8.7021H63.6475V19.9289C63.6475 20.5837 64.1761 21.1122 64.8309 21.1122H78.408L80.8931 22.8636C83.2442 24.5204 84.6484 27.2185 84.6484 30.0981V33.4195H77.3745C74.6447 31.9206 71.3391 31.9206 68.6092 33.4195H60.4833V8.71069L60.476 8.7021ZM60.476 35.7781H65.8092C64.965 36.851 64.3496 38.1133 64.0499 39.4939H60.476V35.7781ZM29.242 48.204C24.7451 48.204 21.4474 43.8492 22.7492 39.4867C24.9661 32.0865 36.0107 33.6092 36.0107 41.4274C36.0107 45.1117 33.0128 48.2043 29.2339 48.2043L29.242 48.204ZM58.1088 39.4867H38.1723C37.8725 38.1061 37.2571 36.8438 36.413 35.7709H57.9661C58.1712 35.7709 58.1081 35.2502 58.1081 39.4867H58.1088ZM10.7412 18.5168H12.9265C14.4885 18.5168 14.4885 16.15 12.9265 16.15H10.7412V9.66506H13.7233C15.2854 9.66506 15.2854 7.29828 13.7233 7.29828H10.7412V2.36746H58.1164C58.1164 33.4037 58.2032 33.4037 57.9744 33.4037H33.6358C30.9061 31.9047 27.6005 31.9047 24.8705 33.4037H10.7405L10.7412 18.5168ZM10.7412 35.7705H22.0782C21.234 36.8435 20.6186 38.1058 20.3189 39.4864H10.7415L10.7412 35.7705ZM25.1548 41.4272C25.1548 43.5889 26.9299 45.5217 29.2493 45.5217C32.2077 45.5217 34.3694 42.3187 32.831 39.4864C30.764 35.6837 25.1469 37.2932 25.1469 41.4271L25.1548 41.4272ZM29.2493 43.1549C28.271 43.1549 27.5215 42.3423 27.5215 41.4272C27.5215 40.512 28.271 39.6994 29.2493 39.6994C30.2275 39.6994 30.977 40.5278 30.977 41.4272C30.977 42.3265 30.2275 43.1549 29.2493 43.1549ZM24.0187 18.5168H17.3681C15.806 18.5168 15.806 16.15 17.3681 16.15H24.0187C25.5807 16.15 25.5807 18.5168 24.0187 18.5168ZM68.8929 41.4273C68.8929 43.581 70.668 45.5218 72.9874 45.5218C75.9459 45.5218 78.1076 42.3188 76.5691 39.4864C74.4864 35.6523 68.885 37.3326 68.885 41.4272L68.8929 41.4273ZM72.9874 43.155C72.0013 43.155 71.2597 42.3345 71.2597 41.4273C71.2597 40.52 72.0013 39.6995 72.9874 39.6995C73.9736 39.6995 74.7152 40.5358 74.7152 41.4273C74.7152 42.3187 73.9657 43.155 72.9874 43.155ZM2.02348 29.041C0.461449 29.041 0.461449 26.6742 2.02348 26.6742H5.21866C6.7807 26.6742 6.7807 29.041 5.21866 29.041H2.02348Z" fill="#008BE6"/>
</svg>
