<svg width="99" height="90" viewBox="0 0 99 90" fill="none" xmlns="http://www.w3.org/2000/svg">
<path d="M2.73391 0.03511C1.49568 -0.150775 0.302211 0.419662 0.0480067 1.31524C-0.206271 2.21079 0.574517 3.08971 1.79961 3.27873L10.2341 4.57885C14.4627 5.22909 17.5253 7.99176 17.5253 11.1462V80.6578C17.5253 80.6875 17.5433 80.711 17.548 80.7373V82.2761C17.548 83.1917 18.5642 83.9345 19.8166 83.9345H26.6541C27.684 87.1484 31.6176 89.5531 36.3273 89.5531C41.0324 89.5531 44.9617 87.1449 45.9963 83.9345H70.5517C71.5815 87.1484 75.5152 89.5531 80.2249 89.5531C84.9299 89.5531 88.8593 87.1449 89.8939 83.9345H96.7314C97.9839 83.9345 99 83.1917 99 82.2761V71.5392C99 70.6236 97.9838 69.8808 96.7314 69.8808H91.5453L91.5458 33.2866C91.5458 32.371 90.5296 31.6282 89.2772 31.6282H81.5956V7.30543C81.5956 6.3898 80.5795 5.647 79.327 5.647H37.2302C35.9777 5.647 34.9616 6.38984 34.9616 7.30543V31.6282H27.28C26.0275 31.6282 25.0114 32.371 25.0114 33.2866V69.8817L22.0622 69.8813V11.1464C22.0622 6.43306 17.4796 2.30353 11.1729 1.33209L2.73391 0.03511ZM36.3274 86.2371C33.3418 86.2371 30.9102 84.4591 30.9102 82.2769C30.9102 80.0944 33.3424 78.3199 36.3274 78.3199C39.313 78.3199 41.7404 80.0944 41.7404 82.2769C41.7404 84.4592 39.313 86.2371 36.3274 86.2371ZM80.2161 86.2371C77.2305 86.2371 74.7989 84.4591 74.7989 82.2769C74.7989 80.0944 77.2311 78.3199 80.2161 78.3199C83.2017 78.3199 85.6291 80.0944 85.6291 82.2769C85.6286 84.4592 83.206 86.2371 80.2161 86.2371ZM54.6166 8.96408H61.9215V14.5264L59.367 13.4916C58.6911 13.2163 57.8518 13.2163 57.1712 13.4916L54.6167 14.5264L54.6166 8.96408ZM39.4901 8.96408H50.0797V17.3426C50.0797 17.9297 50.506 18.4738 51.1961 18.7723C51.5501 18.9251 51.9495 19.0011 52.3483 19.0011C52.725 19.0011 53.106 18.9313 53.4463 18.792L58.2694 16.8385L63.0925 18.792C63.791 19.074 64.653 19.0674 65.3432 18.7689C66.0327 18.4704 66.4595 17.9296 66.4595 17.3392L66.4591 8.96407H77.0487V31.6284H39.489L39.4901 8.96408ZM51.818 34.9452H64.7267V43.2243L59.3728 41.0583C58.6922 40.783 57.8576 40.783 57.177 41.0583L51.8184 43.2274L51.818 34.9452ZM29.5409 34.9452H47.2808V46.0403C47.2808 46.6274 47.7071 47.1715 48.3972 47.47C49.0915 47.7686 49.9445 47.7751 50.6479 47.4932L58.2751 44.4085L65.8976 47.4932C66.5962 47.7717 67.4582 47.7686 68.1483 47.47C68.8379 47.1715 69.2647 46.6308 69.2647 46.0403V34.9452H87.0045V69.8819L29.5393 69.8816L29.5409 34.9452ZM22.0863 73.1979H94.4541V80.6176H89.8852C88.8506 77.4068 84.9218 75.0021 80.221 75.0021C75.5159 75.0021 71.5866 77.4069 70.552 80.6176H45.9966C44.962 77.4068 41.0332 75.0021 36.3324 75.0021C31.6273 75.0021 27.698 77.4069 26.6634 80.6176L22.0855 80.618L22.0863 73.1979Z" fill="#008BE6"/>
</svg>
