<svg width="115" height="108" viewBox="0 0 115 108" fill="none" xmlns="http://www.w3.org/2000/svg">
<path d="M1.17797 108H113.118C113.77 108 114.297 107.459 114.297 106.79C114.297 106.122 113.77 105.581 113.118 105.581H92.7698V96.0202C92.7698 95.3513 92.2432 94.8107 91.5915 94.8107H82.9593L82.959 61.6813C82.959 61.0124 82.4323 60.4718 81.7806 60.4718H69.3307V57.4083C69.3307 56.7406 68.8041 56.1989 68.1524 56.1989C67.5007 56.1989 66.974 56.7406 66.974 57.4083V60.4718H54.5231C53.8726 60.4718 53.3448 61.0124 53.3448 61.6813V70.6811H48.3676C47.717 70.6811 47.1893 71.2216 47.1893 71.8905V92.7489C43.6827 90.9154 39.7821 89.9284 35.7252 89.9284C30.5934 89.9284 25.7075 91.4863 21.5647 94.3706L20.6192 37.5456C23.3575 37.2649 25.5116 34.9124 25.5116 32.0282C25.5116 29.1195 23.321 26.7513 20.5474 26.5056L20.1573 17.992C20.155 17.9279 20.1243 17.8735 20.1113 17.8129C20.0937 17.7212 20.0818 17.6279 20.0442 17.5456C20.0265 17.507 19.9981 17.4779 19.9759 17.4428C19.9168 17.3401 19.8535 17.242 19.7672 17.1621C19.7554 17.1511 19.7412 17.1452 19.7285 17.1353C19.6261 17.0471 19.5152 16.9719 19.3879 16.9235C19.3453 16.9066 19.2985 16.9078 19.2536 16.8956C19.1627 16.8727 19.0768 16.8389 18.979 16.8389H18.1072L18.1068 1.20947C18.1068 0.541742 17.579 0 16.9284 0C16.2779 0 15.7501 0.541742 15.7501 1.20947V16.8399H14.8794C14.446 16.8399 14.0828 17.0915 13.878 17.4505C13.8569 17.4844 13.8296 17.5123 13.8131 17.5486C13.7767 17.6285 13.7659 17.719 13.7483 17.8072C13.7353 17.8702 13.7046 17.9257 13.7011 17.9923L13.3145 26.4574H13.046C10.0519 26.4574 7.61736 28.9562 7.61736 32.0283C7.61736 35.1016 10.0531 37.6004 13.046 37.6004H13.4595L12.3272 105.58H1.17832C0.52779 105.58 0 106.12 0 106.789C0 107.458 0.52779 108 1.17832 108L1.17797 108ZM48.3687 105.581H19.8671V99.5774H51.5856V105.581H48.3687ZM82.9593 105.581V97.2297H90.4132V105.581H82.9593ZM55.7018 62.8917H80.6037V69.5414H76.8447C76.1931 69.5414 75.6664 70.082 75.6664 70.7509C75.6664 71.4198 76.1931 71.9604 76.8447 71.9604H80.6037V75.6057H76.8447C76.1931 75.6057 75.6664 76.1463 75.6664 76.8152C75.6664 77.4841 76.1931 78.0247 76.8447 78.0247H80.6037V81.6712H76.8447C76.1931 81.6712 75.6664 82.2118 75.6664 82.8807C75.6664 83.5496 76.1931 84.0902 76.8447 84.0902H80.6037V87.7355H76.8447C76.1931 87.7355 75.6664 88.2761 75.6664 88.945C75.6664 89.6139 76.1931 90.1545 76.8447 90.1545H80.6037V93.801H76.8447C76.1931 93.801 75.6664 94.3416 75.6664 95.0105C75.6664 95.6794 76.1931 96.22 76.8447 96.22H80.6037V99.8665H76.8447C76.1931 99.8665 75.6664 100.407 75.6664 101.076C75.6664 101.745 76.1931 102.285 76.8447 102.285H80.6037V105.584H73.2898L73.2895 71.8928C73.2895 71.2239 72.7628 70.6833 72.1111 70.6833H55.702L55.7018 62.8917ZM49.5475 92.5096H52.7645C53.415 92.5096 53.9428 91.9691 53.9428 91.3002C53.9428 90.6312 53.415 90.0907 52.7645 90.0907H49.5475V87.6571H52.7645C53.415 87.6571 53.9428 87.1166 53.9428 86.4477C53.9428 85.7787 53.415 85.2382 52.7645 85.2382H49.5475V82.8058H52.7645C53.415 82.8058 53.9428 82.2653 53.9428 81.5964C53.9428 80.9275 53.415 80.3869 52.7645 80.3869H49.5475V77.9533H52.7645C53.415 77.9533 53.9428 77.4128 53.9428 76.7439C53.9428 76.0749 53.415 75.5344 52.7645 75.5344H49.5475V73.1008H54.5189C54.5212 73.1008 54.5223 73.102 54.5246 73.102C54.5269 73.102 54.5281 73.1008 54.5304 73.1008H70.9336V75.5344L58.9206 75.5348C58.2701 75.5348 57.7423 76.0753 57.7423 76.7442C57.7423 77.4132 58.2701 77.9537 58.9206 77.9537H70.9326V80.3873H58.9206C58.2701 80.3873 57.7423 80.9278 57.7423 81.5968C57.7423 82.2657 58.2701 82.8062 58.9206 82.8062H70.9326V85.2386H58.9206C58.2701 85.2386 57.7423 85.7791 57.7423 86.448C57.7423 87.117 58.2701 87.6575 58.9206 87.6575H70.9326V90.0911L58.9206 90.0907C58.2701 90.0907 57.7423 90.6312 57.7423 91.3002C57.7423 91.9691 58.2701 92.5096 58.9206 92.5096H70.9326V94.9432H58.9206C58.2701 94.9432 57.7423 95.4837 57.7423 96.1527C57.7423 96.8216 58.2701 97.3621 58.9206 97.3621H70.9326V99.7945H58.9206C58.2701 99.7945 57.7423 100.335 57.7423 101.004C57.7423 101.673 58.2701 102.213 58.9206 102.213H70.9326V105.583H53.9422V98.3701C53.9422 98.213 53.9115 98.0555 53.8513 97.9079C53.7911 97.7591 53.704 97.6248 53.5955 97.5138C52.3489 96.2331 50.9891 95.1141 49.5458 94.144V92.5097L49.5475 92.5096ZM49.5942 97.1589H21.8595C25.8221 94.0541 30.6378 92.349 35.7274 92.349C40.8165 92.3502 45.6321 94.0541 49.5952 97.1589H49.5942ZM16.0052 19.2599H17.8564L18.1862 26.4588H15.6765L16.0052 19.2599ZM9.97704 32.0309C9.97704 30.2931 11.3556 28.8789 13.049 28.8789H20.0848C21.7778 28.8789 23.1556 30.2927 23.1556 32.0309C23.1556 33.7703 21.7782 35.1841 20.0848 35.1841H13.049C11.3556 35.1841 9.97704 33.7691 9.97704 32.0309ZM15.8203 37.603H18.2629L19.2398 96.2271C18.7707 96.6433 18.2997 97.0594 17.8563 97.5142C17.8479 97.5229 17.8456 97.5347 17.8375 97.5422C17.7397 97.6485 17.6572 97.7697 17.602 97.9063C17.5418 98.0552 17.5111 98.2123 17.5111 98.3698V105.583H14.6876L15.8203 37.603Z" fill="#008BE6"/>
</svg>
