<svg width="19" height="13" viewBox="0 0 19 13" fill="none" xmlns="http://www.w3.org/2000/svg">
<path d="M3.88697 12.9999H15.305C17.0491 12.9999 18.4668 11.3015 18.4668 9.21354C18.4668 7.54337 17.5495 6.13786 16.2921 5.63825C15.8862 4.42719 14.8981 3.52729 13.6953 3.2781C13.1694 2.07294 12.2451 1.07891 11.0319 0.504925C8.59584 -0.647731 5.09598 0.0871806 3.12732 3.60167C1.34641 4.03531 0 5.9547 0 8.25371C0.000774519 10.8707 1.74492 13 3.88746 13L3.88697 12.9999ZM3.88697 5.94992H3.88929C4.02948 5.94992 4.16539 5.91574 4.29628 5.86566C4.33423 5.85095 4.36985 5.83505 4.40587 5.81558C4.50345 5.76669 4.59251 5.70428 4.67577 5.62877C4.69823 5.60929 4.72224 5.59459 4.74238 5.57273C4.82796 5.48131 4.90424 5.37876 4.96117 5.25873C6.19377 2.6334 8.49899 1.99511 10.037 2.72244C10.8769 3.11911 11.486 3.85088 11.7083 4.73083C11.7191 4.77376 11.7474 4.80516 11.7629 4.84689C11.7927 4.92877 11.8272 5.0031 11.8725 5.07663C11.9104 5.13784 11.9523 5.1915 11.9999 5.24396C12.0556 5.30517 12.1141 5.35883 12.1807 5.40772C12.2404 5.45184 12.3008 5.48602 12.3674 5.51742C12.4351 5.54922 12.5029 5.57466 12.578 5.59453C12.659 5.6152 12.7387 5.62394 12.822 5.62633C12.865 5.62752 12.9029 5.6458 12.947 5.64342C13.5728 5.60804 14.07 6.09415 14.1188 6.74601C14.1246 6.82312 14.1567 6.8899 14.1757 6.96224C14.1935 7.02822 14.2009 7.09658 14.228 7.1578C14.2648 7.24325 14.3221 7.31281 14.3767 7.38595C14.4135 7.43365 14.4398 7.4873 14.4824 7.52984C14.5537 7.59939 14.6396 7.64709 14.724 7.69717C14.7693 7.72301 14.805 7.76076 14.8538 7.78024C14.9928 7.83867 15.1442 7.87444 15.3033 7.87444H15.3045C15.6743 7.87444 16.0871 8.4472 16.0871 9.21514C16.0871 9.98425 15.6732 10.5594 15.3045 10.5594L3.88648 10.559C3.06787 10.559 2.37818 9.50412 2.37818 8.2548C2.3778 7.00599 3.06902 5.9499 3.88648 5.9499L3.88697 5.94992Z" fill="#008BE6"/>
</svg>
