<svg width="24" height="15" viewBox="0 0 24 15" fill="none" xmlns="http://www.w3.org/2000/svg">
<path d="M3.6922 14.8324H20.4951C22.4277 14.8324 24 12.9343 24 10.6019C24 8.69431 22.9395 7.09644 21.4973 6.57228C21.2826 5.87438 20.902 5.245 20.3603 4.75156C19.8197 4.26051 19.1759 3.9556 18.4898 3.83085C17.9031 2.41306 16.8174 1.25322 15.4016 0.58244C12.8955 -0.600561 10.0503 0.0842217 8.38871 2.04206C7.99729 1.80332 7.5655 1.62595 7.09214 1.54145C6.07361 1.36011 5.01044 1.58171 4.10136 2.17081C2.67237 3.10268 1.95793 4.73721 2.16291 6.26662C0.889996 6.97569 0 8.53059 0 10.3417C0 12.8184 1.65573 14.8325 3.6921 14.8325L3.6922 14.8324ZM5.37785 4.24107C5.78325 3.97921 6.25 3.87638 6.68526 3.95569C7.07784 4.02544 7.39976 4.23589 7.59081 4.54718C7.60983 4.57787 7.63973 4.59381 7.65993 4.62171C7.70885 4.68788 7.76361 4.74527 7.82574 4.80067C7.88787 4.85568 7.94845 4.9035 8.01795 4.94496C8.04785 4.9621 8.06804 4.9916 8.10027 5.00634C8.13833 5.02468 8.17794 5.02109 8.21599 5.03464C8.29366 5.06174 8.36977 5.08127 8.45209 5.09204C8.52858 5.102 8.6012 5.10439 8.67653 5.09921C8.75186 5.09443 8.82214 5.08207 8.89476 5.06254C8.97475 5.04062 9.04853 5.01113 9.12386 4.97326C9.15959 4.95493 9.20036 4.95253 9.23492 4.93021C9.26482 4.91068 9.28152 4.87999 9.3087 4.85807C9.37316 4.80785 9.42791 4.75285 9.4815 4.68908C9.53509 4.62531 9.58285 4.56313 9.62207 4.49059C9.63994 4.4599 9.66751 4.43917 9.68187 4.40609C10.4632 2.66516 12.5841 1.94846 14.4033 2.80821C15.4413 3.29926 16.195 4.20641 16.4707 5.2985C16.4839 5.34991 16.5127 5.38897 16.5317 5.43681C16.5554 5.49819 16.5771 5.55797 16.6082 5.61417C16.6474 5.68034 16.6952 5.73654 16.7441 5.79433C16.7907 5.84933 16.8322 5.90593 16.8885 5.95097C16.9398 5.99242 16.9996 6.01714 17.0567 6.05022C17.1534 6.10403 17.2512 6.14707 17.3619 6.17139C17.4477 6.19211 17.5335 6.21682 17.6244 6.21682C17.6434 6.21682 17.6636 6.21084 17.683 6.20965C17.6939 6.20965 17.7032 6.21443 17.7141 6.21324C18.0946 6.18733 18.4787 6.31487 18.7768 6.5879C19.0848 6.8681 19.272 7.2603 19.303 7.69234C19.3088 7.76966 19.3411 7.83423 19.3589 7.90677C19.3768 7.97413 19.3842 8.04389 19.4114 8.10766C19.4482 8.19096 19.5045 8.25833 19.557 8.33047C19.595 8.38069 19.6226 8.43689 19.6669 8.48232C19.736 8.55088 19.8206 8.59632 19.9041 8.64654C19.9507 8.67364 19.9888 8.7127 20.0389 8.73343C20.1783 8.79202 20.3313 8.82789 20.4897 8.82789H20.4909C21.0205 8.82789 21.61 9.55768 21.61 10.606C21.61 11.6554 21.0194 12.3876 20.4909 12.3876L3.69197 12.3872C3.07417 12.3872 2.38566 11.5486 2.38566 10.3461C2.38566 9.1436 3.07413 8.30497 3.69197 8.30497C3.83021 8.30497 3.96767 8.27069 4.10125 8.22047C4.14047 8.20453 4.17658 8.18739 4.21347 8.16905C4.25153 8.14952 4.29114 8.13956 4.32802 8.11644C4.36491 8.09213 4.3851 8.05387 4.42005 8.02716C4.48451 7.97455 4.54276 7.92074 4.59556 7.85458C4.64449 7.7944 4.68371 7.73222 4.72099 7.66486C4.75671 7.5975 4.78778 7.53014 4.8103 7.45441C4.83554 7.3735 4.84952 7.29537 4.85922 7.20968C4.86388 7.16544 4.88446 7.12758 4.88446 7.08254C4.88446 7.04946 4.86777 7.01996 4.86544 6.98688C4.85961 6.90477 4.8402 6.82785 4.81767 6.74693C4.79515 6.66602 4.76991 6.59149 4.73302 6.51815C4.71749 6.48865 4.71633 6.45677 4.69963 6.42767C4.27753 5.73853 4.58313 4.75918 5.37762 4.24105L5.37785 4.24107Z" fill="#008BE6"/>
</svg>
